<?xml version="1.0" encoding="UTF-8" standalone="no"?>
<!-- Uploaded to: SVG Repo, www.svgrepo.com, Generator: SVG Repo Mixer Tools -->

<svg
   fill="#000000"
   width="12"
   height="12"
   viewBox="0 0 32 32"
   version="1.1"
   id="svg1"
   sodipodi:docname="at.svg"
   inkscape:version="1.3 (0e150ed6c4, 2023-07-21)"
   xmlns:inkscape="http://www.inkscape.org/namespaces/inkscape"
   xmlns:sodipodi="http://sodipodi.sourceforge.net/DTD/sodipodi-0.dtd"
   xmlns="http://www.w3.org/2000/svg"
   xmlns:svg="http://www.w3.org/2000/svg"
   xmlns:rdf="http://www.w3.org/1999/02/22-rdf-syntax-ns#"
   xmlns:cc="http://creativecommons.org/ns#"
   xmlns:dc="http://purl.org/dc/elements/1.1/">
  <defs
     id="defs1" />
  <sodipodi:namedview
     id="namedview1"
     pagecolor="#505050"
     bordercolor="#eeeeee"
     borderopacity="1"
     inkscape:showpageshadow="0"
     inkscape:pageopacity="0"
     inkscape:pagecheckerboard="0"
     inkscape:deskcolor="#505050"
     inkscape:zoom="11.37"
     inkscape:cx="0.52770449"
     inkscape:cy="22.91117"
     inkscape:window-width="2560"
     inkscape:window-height="1351"
     inkscape:window-x="-9"
     inkscape:window-y="-9"
     inkscape:window-maximized="1"
     inkscape:current-layer="svg1" />
  <title
     id="title1">at</title>
  <path
     d="M 0,16 Q 0,12.768 1.28,9.792 2.56,6.816 4.672,4.672 6.784,2.528 9.792,1.28 12.8,0.032 16,0 q 3.264,0 6.24,1.28 2.976,1.28 5.088,3.392 2.112,2.112 3.392,5.12 Q 32,12.8 32,16 v 6.016 Q 32,24.512 30.24,26.24 28.48,27.968 26.016,28 23.744,28 22.08,26.528 20.416,25.056 20.096,22.848 18.144,24 16,24 13.824,24 12,22.944 10.176,21.888 9.056,20.032 7.936,18.176 8,16 8,12.704 10.336,10.368 12.672,8.032 16,8 19.328,7.968 21.664,10.368 24,12.768 24,16 v 6.016 q 0,0.8 0.608,1.408 0.608,0.608 1.408,0.576 0.8,0 1.408,-0.576 Q 28.032,22.848 28,22.016 V 16 Q 28,12.736 26.4,9.984 24.8,7.232 22.016,5.632 19.232,4.032 16,4 12.768,3.968 9.984,5.632 7.2,7.296 5.6,9.984 4,12.672 4,16 4,19.328 5.6,22.048 7.2,24.768 9.984,26.4 12.768,28.032 16,28 h 2.016 q 0.8,0 1.408,0.608 0.608,0.608 0.576,1.408 -0.032,0.8 -0.576,1.408 Q 18.88,32.032 18.016,32 H 16 Q 12.736,32 9.792,30.752 6.848,29.504 4.672,27.328 2.496,25.152 1.28,22.208 0.064,19.264 0,16 Z m 12,0 q 0,1.664 1.184,2.848 Q 14.368,20.032 16,20 17.632,19.968 18.816,18.848 20,17.728 20,16 20,14.272 18.816,13.184 17.632,12.096 16,12 14.368,11.904 13.184,13.184 12,14.464 12,16 Z"
     id="path1" />
  <metadata
     id="metadata1">
    <rdf:RDF>
      <cc:Work
         rdf:about="">
        <dc:title>at</dc:title>
      </cc:Work>
    </rdf:RDF>
  </metadata>
</svg>
