<?xml version="1.0" encoding="UTF-8" standalone="no"?>
<!-- Uploaded to: SVG Repo, www.svgrepo.com, Generator: SVG Repo Mixer Tools -->

<svg
   width="12"
   height="12"
   viewBox="0 0 20 20"
   fill="none"
   version="1.1"
   id="svg1"
   sodipodi:docname="calendar.svg"
   inkscape:version="1.3 (0e150ed6c4, 2023-07-21)"
   xmlns:inkscape="http://www.inkscape.org/namespaces/inkscape"
   xmlns:sodipodi="http://sodipodi.sourceforge.net/DTD/sodipodi-0.dtd"
   xmlns="http://www.w3.org/2000/svg"
   xmlns:svg="http://www.w3.org/2000/svg">
  <defs
     id="defs1" />
  <sodipodi:namedview
     id="namedview1"
     pagecolor="#505050"
     bordercolor="#eeeeee"
     borderopacity="1"
     inkscape:showpageshadow="0"
     inkscape:pageopacity="0"
     inkscape:pagecheckerboard="0"
     inkscape:deskcolor="#505050"
     inkscape:zoom="64.318433"
     inkscape:cx="4.2600541"
     inkscape:cy="6.7554507"
     inkscape:window-width="2560"
     inkscape:window-height="1351"
     inkscape:window-x="-9"
     inkscape:window-y="-9"
     inkscape:window-maximized="1"
     inkscape:current-layer="svg1" />
  <path
     style="color:#000000;fill:#000000;stroke-linecap:round;-inkscape-stroke:none"
     d="m 6.1347656,0 a 1,1 0 0 0 -1,1 v 1 h -1 c -1.6450079,0 -3,1.3549921 -3,3 v 3 9 c 0,1.645023 1.3550102,3 3,3 H 16.134766 c 1.645005,0 3,-1.354995 3,-3 V 8 5 c 0,-1.6449898 -1.354977,-3 -3,-3 h -1 V 1 a 1,1 0 0 0 -1,-1 1,1 0 0 0 -1,1 V 2 H 7.1347656 V 1 a 1,1 0 0 0 -1,-1 z m -2,4 h 1 v 1 a 1,1 0 0 0 1,1 1,1 0 0 0 1,-1 V 4 h 6.0000004 v 1 a 1,1 0 0 0 1,1 1,1 0 0 0 1,-1 V 4 h 1 c 0.564174,0 1,0.435852 1,1 V 7 H 3.1347656 V 5 c 0,-0.5641299 0.4358702,-1 1,-1 z m -1,5 H 17.134766 v 8 c 0,0.564193 -0.435808,1 -1,1 H 4.1347656 c -0.5641479,0 -1,-0.435825 -1,-1 z"
     id="path1" />
  <rect
     x="6"
     y="12"
     width="5"
     height="5"
     rx="1"
     fill="#000000"
     id="rect1" />
</svg>
