<?xml version="1.0" encoding="UTF-8" standalone="no"?>
<!-- Uploaded to: SVG Repo, www.svgrepo.com, Generator: SVG Repo Mixer Tools -->

<svg
   width="12"
   height="12"
   viewBox="0 0 24 24"
   fill="none"
   version="1.1"
   id="svg2"
   sodipodi:docname="link.svg"
   inkscape:version="1.3 (0e150ed6c4, 2023-07-21)"
   xmlns:inkscape="http://www.inkscape.org/namespaces/inkscape"
   xmlns:sodipodi="http://sodipodi.sourceforge.net/DTD/sodipodi-0.dtd"
   xmlns="http://www.w3.org/2000/svg"
   xmlns:svg="http://www.w3.org/2000/svg">
  <defs
     id="defs2" />
  <sodipodi:namedview
     id="namedview2"
     pagecolor="#505050"
     bordercolor="#eeeeee"
     borderopacity="1"
     inkscape:showpageshadow="0"
     inkscape:pageopacity="0"
     inkscape:pagecheckerboard="0"
     inkscape:deskcolor="#505050"
     inkscape:zoom="45.48"
     inkscape:cx="5.2550572"
     inkscape:cy="7.5307828"
     inkscape:window-width="2560"
     inkscape:window-height="1351"
     inkscape:window-x="-9"
     inkscape:window-y="-9"
     inkscape:window-maximized="1"
     inkscape:current-layer="svg2" />
  <path
     d="M 16.4481,1.50023 C 14.844,1.4862 13.3007,2.10727 12.15,3.22645 L 12.1351,3.24107 11.6464,3.7298 c -0.3905,0.39052 -0.3905,1.02369 0,1.41421 l 0.7071,0.70711 c 0.3906,0.39052 1.0237,0.39052 1.4142,0 l 0.4807,-0.48064 c 0.5856,-0.56611 1.3658,-0.87743 2.1734,-0.87036 0.8108,0.00709 1.5885,0.33451 2.165,0.91505 0.5769,0.58089 0.9059,1.36885 0.913,2.19474 0.0071,0.82185 -0.3052,1.61183 -0.8668,2.20191 l -3.1121,3.13138 c -0.3153,0.3177 -0.694,0.5626 -1.1102,0.719 -0.4162,0.1563 -0.8606,0.2206 -1.3031,0.1887 -0.4425,-0.032 -0.8735,-0.1594 -1.2638,-0.3741 -0.0982,-0.054 -0.1934,-0.1133 -0.285,-0.1775 -0.4522,-0.317 -1.0729,-0.4276 -1.5163,-0.0983 l -0.80272,0.5963 c -0.44336,0.3293 -0.54076,0.963 -0.14377,1.347 0.38843,0.3757 0.82589,0.6992 1.30169,0.961 0.7687,0.4229 1.6194,0.6747 2.4941,0.7378 0.8748,0.0631 1.7526,-0.0641 2.5738,-0.3725 0.8212,-0.3085 1.5661,-0.7909 2.1844,-1.4138 l 3.1212,-3.1406 0.0186,-0.0191 C 21.9007,10.7389 22.5136,9.18987 22.4997,7.58402 22.4859,5.97817 21.8463,4.43996 20.7155,3.30127 19.5844,2.16225 18.0521,1.51427 16.4481,1.50023 Z"
     fill="#000000"
     id="path1" />
  <path
     d="M 11.1082,7.15685 C 10.2334,7.09376 9.35555,7.22089 8.53436,7.52937 7.71347,7.83773 6.96821,8.32053 6.34994,8.94317 L 3.22873,12.0838 3.21011,12.1029 c -1.11083,1.1581 -1.72374,2.7072 -1.70988,4.3131 0.01386,1.6058 0.65342,3.144 1.78418,4.2827 1.1311,1.139 2.6634,1.787 4.26744,1.801 1.60406,0.0141 3.14745,-0.607 4.29815,-1.7262 l 0.0148,-0.0146 0.4888,-0.4888 c 0.3905,-0.3905 0.3905,-1.0236 0,-1.4142 l -0.7072,-0.7071 c -0.3905,-0.3905 -1.0236,-0.3905 -1.4142,0 L 9.75155,18.6295 C 9.16598,19.1956 8.38576,19.5069 7.5781,19.4999 6.76732,19.4928 5.98963,19.1653 5.41313,18.5848 4.83629,18.0039 4.50725,17.216 4.50012,16.3901 4.49303,15.5682 4.80532,14.7782 5.36694,14.1881 l 3.1121,-3.1314 c 0.3153,-0.3176 0.69406,-0.5626 1.11028,-0.7189 0.41618,-0.1564 0.86048,-0.2206 1.30308,-0.1887 0.4425,0.0319 0.8735,0.1593 1.2637,0.374 0.0983,0.0541 0.1934,0.1134 0.285,0.1776 0.4523,0.317 1.073,0.4275 1.5163,0.0982 l 0.8028,-0.5963 C 15.2036,9.87328 15.301,9.23958 14.904,8.85563 14.5155,8.47995 14.0781,8.15644 13.6022,7.89464 12.8335,7.47172 11.9829,7.21993 11.1082,7.15685 Z"
     fill="#000000"
     id="path2"
     style="fill:#000000;fill-opacity:1" />
</svg>
