<?xml version="1.0" encoding="UTF-8" standalone="no"?>
<!-- Uploaded to: SVG Repo, www.svgrepo.com, Generator: SVG Repo Mixer Tools -->

<svg
   width="12"
   height="12"
   viewBox="0 0 20 20"
   fill="none"
   version="1.1"
   id="svg1"
   sodipodi:docname="location.svg"
   inkscape:version="1.3 (0e150ed6c4, 2023-07-21)"
   xmlns:inkscape="http://www.inkscape.org/namespaces/inkscape"
   xmlns:sodipodi="http://sodipodi.sourceforge.net/DTD/sodipodi-0.dtd"
   xmlns="http://www.w3.org/2000/svg"
   xmlns:svg="http://www.w3.org/2000/svg">
  <defs
     id="defs1" />
  <sodipodi:namedview
     id="namedview1"
     pagecolor="#505050"
     bordercolor="#eeeeee"
     borderopacity="1"
     inkscape:showpageshadow="0"
     inkscape:pageopacity="0"
     inkscape:pagecheckerboard="0"
     inkscape:deskcolor="#505050"
     inkscape:zoom="32.159216"
     inkscape:cx="0.031095285"
     inkscape:cy="12.888996"
     inkscape:window-width="2560"
     inkscape:window-height="1351"
     inkscape:window-x="-9"
     inkscape:window-y="-9"
     inkscape:window-maximized="1"
     inkscape:current-layer="svg1" />
  <path
     style="color:#000000;fill:#000000;stroke-linecap:round;stroke-linejoin:round;-inkscape-stroke:none"
     d="M 10.051825,4 C 7.8545333,4 6.0518255,5.8027078 6.0518255,8 c 0,2.197292 1.8027078,4 3.9999995,4 2.197292,0 4,-1.802708 4,-4 0,-2.1972922 -1.802708,-4 -4,-4 z m 0,2 c 1.116413,0 2,0.883587 2,2 0,1.116413 -0.883587,2 -2,2 -1.1164125,0 -1.9999995,-0.883587 -1.9999995,-2 0,-1.116413 0.883587,-2 1.9999995,-2 z"
     id="circle1" />
  <path
     style="color:#000000;fill:#000000;stroke-linecap:round;stroke-linejoin:round;-inkscape-stroke:none"
     d="M 10.051825,0 C 5.6647004,0 2.0518255,3.461627 2.0518255,7.75 c 0,3.227312 1.9107458,6.179631 3.7304687,8.373047 1.819723,2.193416 3.6425783,3.65625 3.6425783,3.65625 a 1.0001,1.0001 0 0 0 1.2539055,0 c 0,0 1.822855,-1.462834 3.642578,-3.65625 1.819723,-2.193416 3.730469,-5.145735 3.730469,-8.373047 0,-4.2883712 -3.612866,-7.75 -8,-7.75 z m 0,2 c 3.344859,0 6,2.5825387 6,5.75 0,2.397683 -1.589258,5.070373 -3.269531,7.095703 -1.366349,1.646939 -2.268548,2.353272 -2.730469,2.744141 C 9.5899045,17.198975 8.6877055,16.492642 7.3213568,14.845703 5.6410832,12.820373 4.0518255,10.147683 4.0518255,7.75 4.0518255,4.5825405 6.7069783,2 10.051825,2 Z"
     id="path1" />
</svg>
