<?xml version="1.0" encoding="UTF-8" standalone="no"?>
<!-- Uploaded to: SVG Repo, www.svgrepo.com, Generator: SVG Repo Mixer Tools -->

<svg
   fill="#000000"
   width="12"
   height="12"
   viewBox="0 0 24 24"
   version="1.1"
   id="svg1"
   sodipodi:docname="phone.svg"
   inkscape:version="1.3 (0e150ed6c4, 2023-07-21)"
   xmlns:inkscape="http://www.inkscape.org/namespaces/inkscape"
   xmlns:sodipodi="http://sodipodi.sourceforge.net/DTD/sodipodi-0.dtd"
   xmlns="http://www.w3.org/2000/svg"
   xmlns:svg="http://www.w3.org/2000/svg">
  <defs
     id="defs1" />
  <sodipodi:namedview
     id="namedview1"
     pagecolor="#505050"
     bordercolor="#eeeeee"
     borderopacity="1"
     inkscape:showpageshadow="0"
     inkscape:pageopacity="0"
     inkscape:pagecheckerboard="0"
     inkscape:deskcolor="#505050"
     inkscape:zoom="32.159216"
     inkscape:cx="6.0946759"
     inkscape:cy="12.391471"
     inkscape:window-width="2560"
     inkscape:window-height="1351"
     inkscape:window-x="-9"
     inkscape:window-y="-9"
     inkscape:window-maximized="1"
     inkscape:current-layer="svg1" />
  <path
     d="m 21.384,17.752 a 2.108,2.108 0 0 1 -0.522,3.359 7.543,7.543 0 0 1 -5.476,0.642 C 10.5,20.523 3.477,13.5 2.247,8.614 A 7.543,7.543 0 0 1 2.889,3.138 2.108,2.108 0 0 1 6.248,2.616 L 8.333,4.7 A 2.094,2.094 0 0 1 8.778,7.028 3.877,3.877 0 0 1 8,8.2 c -2.384,2.384 5.417,10.185 7.8,7.8 a 3.877,3.877 0 0 1 1.173,-0.781 2.092,2.092 0 0 1 2.328,0.445 z"
     id="path1" />
</svg>
